<svg width="75" height="24" viewBox="0 0 75 24" fill="none" xmlns="http://www.w3.org/2000/svg">
<g clip-path="url(#clip0_36_2140)">
<path d="M61.9276 14.4253C61.7016 14.3051 61.4392 14.2729 61.1908 14.3349C60.9425 14.3969 60.7259 14.5488 60.5825 14.7613C60.2903 15.2156 59.9417 15.6309 59.5452 15.9973C59.0737 16.396 58.5349 16.707 57.9543 16.9157C57.3363 17.1478 56.6817 17.2665 56.0218 17.2661C55.3809 17.2782 54.7445 17.1557 54.1537 16.9065C53.5628 16.6572 53.0304 16.2868 52.5909 15.8189C51.6885 14.858 51.1764 13.5938 51.1548 12.2741H61.6389C61.852 12.274 62.0624 12.2267 62.2552 12.1355C62.4479 12.0443 62.6182 11.9114 62.7538 11.7465C62.8893 11.5816 62.9868 11.3887 63.0393 11.1816C63.0918 10.9745 63.098 10.7583 63.0574 10.5485C62.8537 9.40094 62.3938 8.31437 61.7122 7.37011C61.061 6.4985 60.2086 5.79836 59.2282 5.32975C58.2478 4.86114 57.1686 4.63809 56.0833 4.67973C55.0257 4.64176 53.9747 4.86101 53.0201 5.31879C52.0654 5.77657 51.2355 6.45924 50.6011 7.30851C49.5105 8.70156 48.9419 10.4341 48.9944 12.2043C49.0468 13.9745 49.7171 15.6701 50.8883 16.9957C51.5464 17.7388 52.3623 18.3243 53.276 18.709C54.1898 19.0938 55.178 19.2681 56.1678 19.2189C57.0975 19.2324 58.0219 19.0763 58.8958 18.7581C59.7009 18.4508 60.441 17.9941 61.0772 17.4117C61.5595 16.963 61.9773 16.4493 62.3186 15.8853C62.3933 15.7651 62.4425 15.6307 62.4629 15.4906C62.4834 15.3504 62.4748 15.2075 62.4375 15.0709C62.4007 14.9338 62.3362 14.8057 62.2481 14.6946C62.16 14.5834 62.0502 14.4915 61.9253 14.4245L61.9276 14.4253ZM59.9952 8.49733C60.422 9.06698 60.7308 9.71653 60.9032 10.4077H51.399C51.65 9.47569 52.143 8.62713 52.8279 7.94852C53.723 7.13692 54.8926 6.69728 56.0992 6.71891C56.8639 6.71817 57.6193 6.88642 58.3117 7.21171C58.965 7.50413 59.5419 7.94446 59.9969 8.49811L59.9952 8.49733Z" fill="white"/>
<path d="M26.6617 14.4295C26.4356 14.3093 26.1732 14.2771 25.9248 14.3391C25.6765 14.4011 25.4598 14.553 25.3164 14.7655C25.0241 15.2198 24.6756 15.6351 24.2792 16.0015C23.8076 16.4001 23.2688 16.7111 22.6883 16.9199C22.0703 17.152 21.4157 17.2707 20.7558 17.2703C20.1149 17.2824 19.4786 17.1599 18.8877 16.9106C18.2968 16.6614 17.7645 16.2909 17.3249 15.8231C16.4226 14.8621 15.9104 13.598 15.8888 12.2783H26.3728C26.586 12.2782 26.7964 12.2309 26.9891 12.1397C27.1819 12.0485 27.3522 11.9156 27.4877 11.7507C27.6233 11.5858 27.7208 11.3929 27.7733 11.1858C27.8258 10.9787 27.832 10.7625 27.7915 10.5527C27.5877 9.40512 27.1278 8.31858 26.4462 7.37431C25.7951 6.50255 24.9428 5.80224 23.9624 5.33349C22.9819 4.86474 21.9026 4.64158 20.8172 4.68312C19.7596 4.64524 18.7086 4.86463 17.7539 5.32255C16.7992 5.78047 15.9693 6.4633 15.3351 7.31271C14.2446 8.70585 13.6761 10.4384 13.7288 12.2086C13.7814 13.9788 14.4517 15.6744 15.6231 16.9999C16.2811 17.743 17.0971 18.3285 18.0108 18.7132C18.9245 19.098 19.9128 19.2723 20.9026 19.2231C21.8322 19.2367 22.7566 19.0805 23.6305 18.7623C24.4356 18.4551 25.1757 17.9983 25.8119 17.4159C26.2944 16.9673 26.7122 16.4536 27.0534 15.8895C27.1281 15.7693 27.1773 15.6349 27.1978 15.4948C27.2182 15.3546 27.2096 15.2117 27.1723 15.0751C27.1355 14.938 27.071 14.8099 26.9829 14.6988C26.8948 14.5876 26.7849 14.4957 26.66 14.4287L26.6617 14.4295ZM24.7292 8.50151C25.156 9.07115 25.4647 9.72072 25.6372 10.4119H16.1329C16.384 9.4799 16.8771 8.63133 17.5619 7.9527C18.457 7.1411 19.6266 6.70148 20.8332 6.72311C21.5979 6.72239 22.3533 6.89065 23.0457 7.21591C23.699 7.50833 24.2758 7.94866 24.7308 8.50231L24.7292 8.50151Z" fill="white"/>
<path d="M11.5428 18.2583V11.4671C11.6109 10.1221 11.4272 8.77624 11.001 7.4991C10.6499 6.66427 10.0578 5.95383 9.30076 5.45911C8.51031 4.94682 7.58571 4.68198 6.64466 4.69832C5.70528 4.68815 4.77925 4.92185 3.95661 5.37671C3.17789 5.81972 2.49192 6.40946 1.93641 7.1135V0.983105C1.93641 0.855671 1.91137 0.729478 1.86273 0.611743C1.81409 0.494009 1.74281 0.387034 1.65294 0.296924C1.56307 0.206814 1.45638 0.135339 1.33896 0.0865723C1.22154 0.0378051 1.09568 0.0126953 0.968583 0.0126953C0.711901 0.0126953 0.465728 0.114939 0.284226 0.296924C0.102725 0.478909 0.000778198 0.725739 0.000778198 0.983105V18.2671C0.000778259 18.5243 0.102656 18.7709 0.284007 18.9527C0.465359 19.1345 0.71131 19.2367 0.96778 19.2367C1.22425 19.2367 1.47022 19.1345 1.65158 18.9527C1.83293 18.7709 1.93481 18.5243 1.93481 18.2671V13.3799C1.89506 12.207 1.96881 11.033 2.15502 9.87432C2.39453 8.92645 2.93194 8.08103 3.68775 7.46311C4.41866 6.83452 5.3506 6.49039 6.31353 6.49351C7.0524 6.42902 7.78795 6.64978 8.36996 7.11069C8.95198 7.5716 9.33656 8.2379 9.44517 8.97351C9.60436 9.95618 9.66638 10.9522 9.6303 11.9471V18.2671C9.63083 18.5217 9.73221 18.7657 9.91214 18.9453C10.0921 19.125 10.3358 19.2256 10.5897 19.2251C10.8437 19.2246 11.087 19.1229 11.2662 18.9425C11.4454 18.7621 11.5457 18.5177 11.5452 18.2631V18.2567L11.5428 18.2583Z" fill="white"/>
<path d="M34.5479 4.6791C33.5508 4.59409 32.5565 4.87152 31.7465 5.46072C30.7667 6.27933 30.1431 7.44825 30.008 8.7199V18.2399C30.008 18.5081 30.1142 18.7653 30.3033 18.9549C30.4925 19.1446 30.749 19.2511 31.0165 19.2511C31.2839 19.2511 31.5405 19.1446 31.7296 18.9549C31.9187 18.7653 32.025 18.5081 32.025 18.2399V8.8615C32.1083 8.16853 32.4445 7.53102 32.9689 7.0719C33.4805 6.847 34.0295 6.71976 34.5877 6.6967C34.8509 6.68626 35.1005 6.57681 35.2868 6.39016C35.4731 6.20351 35.5824 5.95335 35.5931 5.6895C35.5916 5.55417 35.5634 5.42049 35.5101 5.29617C35.4568 5.17184 35.3794 5.05935 35.2824 4.96523C35.1854 4.87111 35.0707 4.79721 34.945 4.74783C34.8194 4.69844 34.6852 4.67454 34.5502 4.67751L34.5479 4.6791Z" fill="white"/>
<path d="M48.1165 17.504L42.7268 10.0232L46.5183 6.68801C46.7082 6.51827 46.8229 6.27987 46.8375 6.02527C46.852 5.77067 46.765 5.52074 46.5957 5.33042C46.4264 5.1401 46.1887 5.025 45.9347 5.01045C45.6808 4.9959 45.4315 5.08307 45.2417 5.25281L39.7077 10.0904V0.97041C39.7077 0.713044 39.6057 0.466214 39.4242 0.284229C39.2427 0.102243 38.9965 0 38.7399 0C38.4832 0 38.237 0.102243 38.0555 0.284229C37.874 0.466214 37.772 0.713044 37.772 0.97041V18.2568C37.7793 18.5095 37.8845 18.7493 38.0652 18.9255C38.246 19.1016 38.4882 19.2001 38.7403 19.2001C38.9923 19.2001 39.2345 19.1016 39.4153 18.9255C39.5961 18.7493 39.7012 18.5095 39.7085 18.2568V12.6768L41.1056 11.4944L46.3675 18.7888C46.541 19.0096 46.7932 19.1543 47.0709 19.1925C47.3487 19.2307 47.6304 19.1594 47.8568 18.9936C48.0831 18.8278 48.2365 18.5803 48.2847 18.3034C48.3328 18.0265 48.2719 17.7417 48.1149 17.5088L48.1165 17.504Z" fill="white"/>
<path d="M65.3887 5.26575C65.3298 5.13736 65.2449 5.02264 65.1394 4.92886C65.0339 4.83509 64.9102 4.7643 64.776 4.72098C64.6418 4.67766 64.5002 4.66278 64.3599 4.67723C64.2197 4.69168 64.084 4.73516 63.9614 4.80494C63.7002 4.94938 63.5069 5.1919 63.4241 5.47918C63.3412 5.76646 63.3755 6.075 63.5194 6.33694L67.8981 14.3721L63.4555 22.5065C63.3859 22.627 63.342 22.7605 63.3263 22.8988C63.3106 23.0371 63.3235 23.1771 63.3644 23.3102C63.4052 23.4432 63.473 23.5663 63.5635 23.6718C63.654 23.7773 63.7653 23.863 63.8904 23.9233C64.151 24.0615 64.4553 24.0913 64.7377 24.0065C65.0201 23.9216 65.258 23.7288 65.3999 23.4697L70.3675 14.3737L65.3872 5.26495L65.3887 5.26575Z" fill="#87C05A"/>
<path d="M74.2764 4.75158C73.9935 4.64858 73.6819 4.65889 73.4064 4.78032C73.1309 4.90175 72.9127 5.12497 72.7971 5.40358C72.7971 5.40358 69.9662 10.574 69.7819 10.9156L71.0146 13.1812L74.8301 6.19079C74.8917 6.06035 74.9263 5.91871 74.9316 5.77446C74.937 5.63021 74.9131 5.48636 74.8613 5.35168C74.8095 5.217 74.7309 5.09428 74.6304 4.99099C74.5298 4.88769 74.4094 4.80676 74.2764 4.75158Z" fill="white"/>
</g>
<defs>
<clipPath id="clip0_36_2140">
<rect width="75" height="24" fill="white"/>
</clipPath>
</defs>
</svg>
